<?xml version="1.0" encoding="UTF-8"?>
<!DOCTYPE svg PUBLIC "-//W3C//DTD SVG 1.1//EN" "http://www.w3.org/Graphics/SVG/1.1/DTD/svg11.dtd">
<!-- Creator: CorelDRAW X8 -->
<svg xmlns="http://www.w3.org/2000/svg" xml:space="preserve" width="88.3708mm" height="33.3374mm" version="1.1" style="shape-rendering:geometricPrecision; text-rendering:geometricPrecision; image-rendering:optimizeQuality; fill-rule:evenodd; clip-rule:evenodd"
viewBox="0 0 8837 3334"
 xmlns:xlink="http://www.w3.org/1999/xlink">
 <defs>
  <style type="text/css">
   <![CDATA[
    .fil1 {fill:#332C2B;fill-rule:nonzero}
    .fil0 {fill:#566892;fill-rule:nonzero}
   ]]>
  </style>
 </defs>
 <g id="圖層_x0020_1">
  <metadata id="CorelCorpID_0Corel-Layer"/>
  <g id="_2254772459504">
   <path class="fil0" d="M1287 845l-326 0c-42,55 -77,95 -105,120l-40 -37c76,-68 132,-147 167,-235l51 18c-9,24 -22,52 -40,84l293 0 0 50zm-432 -1l-289 0c-47,58 -85,101 -116,129l-42 -35c90,-87 152,-168 186,-243l51 17c-6,15 -21,43 -44,83l254 0 0 49zm304 137l-46 27c-12,-24 -35,-57 -67,-99l46 -26c28,34 51,67 67,98zm-409 -1l-45 26c-13,-28 -33,-60 -61,-97l43 -26c23,25 44,58 63,97zm551 378c0,87 -6,146 -19,178 -12,32 -41,48 -86,48 -61,0 -91,-21 -91,-64l0 -429 -149 0c-2,72 -4,136 -8,191 38,32 77,68 116,109l-36 41c-25,-27 -54,-55 -87,-84 -13,107 -74,188 -183,245l-40 -43c52,-22 94,-54 126,-99 32,-44 49,-92 50,-143 -40,-34 -77,-60 -111,-80l30 -40c21,11 49,30 83,56 3,-31 4,-82 4,-153l-89 0 0 -51 347 0 0 467c0,15 10,22 31,22 19,0 31,-2 36,-6 5,-4 8,-8 11,-13 2,-5 5,-24 9,-59 4,-35 6,-72 6,-110l50 17zm-528 66c-134,43 -253,76 -355,98l-17 -51c66,-12 126,-26 180,-41l0 -320 -150 0 0 -50 338 0 0 50 -135 0 0 303c39,-8 85,-22 139,-42l0 53zm1549 -614l-314 0 0 55 -51 0 0 -166 51 0 0 61 314 0 0 50zm-519 55l-51 0 0 -55 -318 0 0 -50 318 0 0 -61 51 0 0 166zm428 219l-704 0 0 -185 704 0 0 185zm-53 -50l0 -86 -164 0 0 86 164 0zm-217 0l0 -86 -165 0 0 86 165 0zm-216 0l0 -86 -167 0 0 86 167 0zm543 275l-50 0 0 -104 -391 0c-16,23 -34,47 -53,72l350 0 0 48c-116,135 -313,226 -591,274l-30 -49c106,-17 193,-36 258,-58 -23,-34 -60,-72 -109,-115 -62,36 -112,60 -152,72l-30 -44c139,-51 237,-118 293,-200l-265 0 0 103 -52 0 0 -153 822 0 0 154zm-217 16l-328 0c-15,13 -25,21 -27,23 51,47 90,88 117,123 100,-37 179,-86 238,-146zm1222 -427c0,22 -7,39 -22,51 -14,11 -49,16 -103,13l-18 -45c16,1 33,2 49,2 30,0 44,-9 44,-27l0 -124 -331 0 0 -45 381 0 0 175zm-443 4c0,22 -7,38 -23,48 -16,11 -49,15 -101,12l-19 -43c44,2 70,1 79,-4 9,-4 13,-12 13,-23l0 -124 -325 0 0 -45 376 0 0 179zm-176 -77l-25 35c-42,-19 -83,-33 -123,-43l25 -33c42,11 83,24 123,41zm443 -5l-20 37c-50,-18 -95,-29 -138,-35l19 -37c40,5 86,16 139,35zm87 61c-106,36 -201,63 -285,82l-18 -38c77,-16 175,-44 295,-85l8 41zm-441 1c-109,35 -200,61 -274,78l-16 -43c88,-17 182,-42 281,-75l9 40zm583 556l-888 0 0 -44 257 0 0 -63 -217 0 0 -46 217 0 0 -62 -154 0 0 -228 683 0 0 228 -155 0 0 62 212 0 0 46 -212 0 0 63 257 0 0 44zm-154 -352l0 -46 -265 0 0 46 265 0zm-317 0l0 -46 -262 0 0 46 262 0zm317 90l0 -45 -265 0 0 45 265 0zm-317 0l0 -45 -262 0 0 45 262 0zm164 109l0 -62 -272 0 0 62 272 0zm0 109l0 -63 -272 0 0 63 272 0zm295 154l-26 43c-72,-31 -167,-59 -286,-85l26 -39c88,17 183,44 286,81zm-541 -46c-72,32 -170,61 -295,87l-27 -44c114,-21 208,-47 282,-76l40 33zm-2412 977c13,-59 32,-132 59,-219 27,-87 48,-150 63,-190 17,-44 36,-66 55,-66 7,0 14,2 20,7 -28,65 -57,144 -86,236 -28,91 -51,172 -66,243 11,1 21,2 30,2 49,0 95,-18 140,-54 44,-37 80,-83 107,-139 27,-57 40,-114 40,-172 0,-55 -13,-96 -39,-124 -25,-28 -61,-42 -105,-42 -46,0 -85,13 -116,40 -31,26 -46,59 -46,97 0,11 1,20 4,27 -29,0 -43,-14 -43,-40 0,-34 23,-67 67,-98 45,-30 96,-46 155,-46 59,0 103,18 132,53 28,36 43,83 43,141 0,50 -10,98 -30,144 -20,47 -46,87 -78,121 -31,33 -67,60 -108,80 -41,21 -81,31 -122,31 -35,0 -61,-11 -76,-32zm418 -120c23,-44 42,-88 57,-134 -5,-5 -8,-10 -8,-17 0,-13 4,-24 11,-33 8,-10 14,-15 19,-15 7,0 10,6 10,17 0,2 -1,6 -3,14 -1,7 -2,11 -2,12 0,6 4,12 11,18 8,6 16,12 25,18 9,6 17,14 24,25 8,11 12,24 12,37 0,16 -6,37 -18,65 -12,27 -18,46 -18,54 0,15 7,22 22,22 20,0 43,-12 68,-36 24,-23 42,-46 52,-70l9 8c-15,32 -36,61 -64,86 -28,25 -56,38 -84,38 -16,0 -29,-5 -38,-13 -9,-9 -14,-20 -14,-34 0,-14 7,-36 20,-67 13,-31 19,-53 19,-65 0,-4 -1,-9 -2,-14 -1,-4 -3,-8 -4,-10 -1,-3 -4,-6 -7,-9l-8 -7c-2,-1 -5,-4 -10,-7 -5,-3 -8,-5 -9,-6 -22,56 -44,101 -64,135l-6 -12zm234 40c0,-44 20,-88 60,-134 39,-47 79,-70 120,-70 29,0 43,15 43,43 0,35 -18,65 -55,91 -36,27 -76,42 -119,46 -2,8 -3,17 -3,26 0,39 19,59 56,59 28,0 57,-12 86,-36 30,-24 53,-54 72,-89l8 6c-19,42 -45,76 -78,101 -34,25 -68,38 -103,38 -28,0 -49,-8 -64,-23 -15,-15 -23,-35 -23,-58zm52 -37c33,-12 65,-30 95,-53 30,-24 45,-49 45,-76 0,-10 -5,-16 -15,-16 -22,0 -45,16 -71,46 -26,31 -44,64 -54,99zm175 62c0,-28 9,-59 29,-93 19,-34 45,-63 75,-88 32,-24 62,-36 91,-36 18,0 34,5 46,15 12,10 18,23 18,38 0,21 -11,31 -34,31 2,-9 3,-17 3,-25 0,-26 -11,-40 -35,-40 -20,0 -42,12 -66,36 -23,24 -42,51 -56,83 -15,31 -23,58 -23,81 0,18 7,28 19,28 9,0 19,-4 30,-12 11,-8 22,-17 31,-27 9,-10 20,-23 33,-40 13,-17 23,-30 29,-39l25 -36c19,3 29,9 29,17 0,4 -7,18 -21,43 -14,24 -21,43 -21,55 0,8 2,16 6,22 4,6 11,10 19,10 14,0 31,-10 51,-30 21,-19 42,-47 62,-82l7 7c-15,38 -35,68 -62,92 -26,24 -53,36 -78,36 -17,0 -29,-5 -38,-15 -8,-9 -13,-20 -13,-34 0,-6 1,-12 2,-20 -21,27 -40,48 -56,61 -17,13 -34,19 -50,19 -16,0 -28,-5 -38,-14 -9,-10 -14,-24 -14,-43zm301 30c0,-2 4,-14 12,-37 8,-24 16,-50 25,-80 8,-29 12,-53 12,-72 9,-10 19,-15 32,-15 13,0 19,6 19,19 0,12 -6,39 -18,80 23,-37 48,-69 74,-95 27,-27 51,-40 74,-40 25,0 37,18 37,55 0,30 -7,63 -21,99 40,-72 79,-108 118,-108 26,0 40,14 40,44 0,13 -5,34 -13,62 -9,29 -13,47 -13,57 0,16 7,24 21,24 29,0 60,-37 94,-112l9 10c-13,35 -31,64 -52,89 -21,25 -44,37 -70,37 -15,0 -27,-5 -36,-14 -8,-10 -12,-22 -12,-37 0,-12 4,-30 11,-53 7,-23 10,-39 10,-48 0,-17 -6,-26 -20,-26 -11,0 -22,8 -35,23 -12,16 -31,43 -57,83 -5,9 -17,31 -34,66 -7,0 -15,-1 -23,-4 -8,-2 -13,-6 -13,-10 0,-1 8,-23 23,-67 14,-44 22,-76 22,-96 0,-18 -6,-26 -18,-26 -20,0 -47,22 -82,67 -34,45 -60,92 -77,140 -7,0 -16,-2 -25,-5 -9,-3 -14,-7 -14,-10zm681 -387c0,-30 13,-59 39,-85 27,-27 57,-41 90,-41 29,0 50,12 65,34 14,22 22,53 22,92 0,39 -8,86 -23,140 -15,54 -31,105 -46,152 -15,47 -22,81 -22,102 0,19 7,28 21,28 22,0 49,-20 81,-60 33,-40 61,-85 84,-136 24,-50 38,-91 42,-122 14,0 25,3 32,11 7,7 11,15 11,23 0,8 -5,22 -13,43l-27 63c-10,22 -19,47 -27,75 -8,28 -12,53 -12,73 0,10 2,18 4,22 3,5 8,8 16,8 26,0 59,-24 99,-73 39,-48 74,-107 104,-175 30,-68 45,-127 45,-175 0,-41 -12,-66 -38,-74 12,-21 26,-32 41,-32 11,0 21,7 30,20 9,14 13,33 13,58 0,50 -17,113 -52,188 -34,76 -76,142 -126,199 -49,57 -93,86 -130,86 -16,0 -30,-5 -42,-14 -12,-9 -19,-22 -19,-39 0,-13 5,-34 14,-64 -55,78 -103,117 -146,117 -14,0 -28,-4 -41,-13 -13,-8 -19,-23 -19,-44 0,-18 7,-50 22,-96 15,-47 30,-98 44,-154 15,-56 23,-104 23,-144 0,-13 -1,-23 -1,-31 0,-7 -1,-16 -2,-26 -2,-10 -4,-18 -7,-23 -2,-5 -7,-9 -12,-13 -6,-4 -13,-6 -21,-6 -23,0 -41,13 -54,38 -12,26 -18,52 -18,81 0,15 2,28 6,38 -17,0 -30,-5 -38,-14 -8,-10 -12,-22 -12,-37zm600 341c0,-18 5,-43 15,-74 10,-31 23,-59 40,-85 16,-26 32,-39 47,-39 10,0 15,5 15,16 0,5 -6,18 -18,39 -12,20 -24,43 -37,69 -12,25 -18,48 -18,67 0,17 3,28 8,34 6,6 14,9 27,9 36,0 73,-36 108,-108l7 7c-14,39 -33,70 -59,92 -25,22 -52,33 -80,33 -18,0 -31,-6 -41,-17 -9,-11 -14,-25 -14,-43zm110 -287c0,-9 6,-18 17,-25 12,-8 23,-11 35,-11 15,0 23,7 23,21 0,9 -5,18 -14,26 -10,8 -20,13 -32,13 -19,0 -29,-8 -29,-24zm37 323c0,-1 4,-12 12,-33 9,-20 17,-45 25,-72 9,-28 13,-50 13,-68 9,-10 20,-15 33,-15 12,0 19,6 19,18 0,16 -8,47 -23,94 54,-83 103,-125 147,-125 17,0 29,7 38,19 9,13 13,27 13,45 0,15 -4,35 -14,59 -9,24 -14,42 -14,52 0,18 7,27 21,27 29,0 62,-37 99,-110l7 9c-34,80 -74,119 -121,119 -16,0 -28,-4 -37,-12 -8,-8 -13,-19 -13,-33 0,-9 4,-25 11,-47 6,-23 10,-39 10,-51 0,-23 -10,-34 -28,-34 -12,0 -24,4 -37,13 -13,9 -24,19 -34,29 -10,10 -21,25 -35,45 -13,20 -23,35 -28,44l-27 43c-17,0 -29,-5 -37,-16zm342 163c0,-10 1,-19 5,-27 3,-9 9,-17 18,-25 8,-8 16,-15 22,-21 6,-5 17,-12 31,-19l29 -17c6,-3 17,-9 32,-16 13,-33 25,-72 36,-115 -42,59 -80,89 -115,89 -16,0 -29,-6 -39,-18 -9,-12 -14,-28 -14,-48 0,-32 10,-62 31,-92 20,-29 45,-52 74,-68 28,-17 56,-25 81,-25 26,0 39,7 39,22 0,8 -3,12 -9,14 -5,-7 -15,-10 -28,-10 -35,0 -67,18 -97,56 -30,38 -45,73 -45,106 0,24 8,35 25,35 12,0 28,-9 47,-26 19,-18 38,-41 57,-68l9 -38c5,-25 17,-37 36,-37 4,0 9,1 14,2 0,13 -5,39 -15,77 -10,38 -23,77 -39,116 25,-11 47,-27 68,-48 21,-21 37,-44 47,-69l9 7c-10,28 -27,54 -53,77 -26,23 -52,41 -79,54 -47,115 -93,172 -137,172 -11,0 -21,-3 -29,-10 -7,-7 -11,-17 -11,-30zm21 -7c0,8 2,14 5,18 3,5 7,7 12,7 11,0 24,-10 41,-31 16,-20 33,-51 50,-93 -34,18 -61,34 -80,49 -18,15 -28,32 -28,50z"/>
   <path class="fil1" d="M4348 1504c0,23 -6,42 -18,57 -14,16 -34,26 -59,28 -29,1 -59,2 -89,3l-41 0 -19 -56c44,1 92,1 142,-1 9,0 16,-4 23,-13 6,-8 9,-16 9,-24l0 -800 52 0 0 806zm-172 -101l-51 0 0 -658 51 0 0 658zm-100 -497l-28 47c-74,-73 -159,-138 -254,-197 -23,27 -60,62 -113,104l230 0 0 47 -234 0 0 -44c-62,46 -119,84 -171,112l-28 -46c133,-71 234,-152 304,-240l56 14c-2,5 -5,9 -8,12 100,67 182,130 246,191zm-66 686l-50 0 0 -52 -295 0 0 52 -51 0 0 -225c-17,95 -48,169 -94,223l-38 -34c64,-97 96,-216 96,-355l0 -235 432 0 0 284 -381 0c-1,17 -4,43 -8,77l389 0 0 265zm-51 -510l0 -66 -328 0 0 66 328 0zm0 119l0 -70 -328 0 0 70 328 0zm1 291l0 -116 -295 0 0 116 295 0zm1418 -533l-859 0 0 -50 260 0c-6,-20 -20,-50 -41,-90l-171 0 0 -50 350 0c-9,-18 -25,-37 -46,-59l52 -22c23,27 43,54 61,81l349 0 0 50 -168 0c-15,35 -31,65 -46,90l259 0 0 50zm-270 -140l-312 0c12,23 26,53 39,90l224 0c15,-24 32,-54 49,-90zm157 501l-637 0 0 -292 637 0 0 292zm-54 -173l0 -71 -529 0 0 71 529 0zm0 123l0 -74 -529 0 0 74 529 0zm-177 179l-44 27c-17,-33 -41,-70 -75,-112l43 -22c31,31 56,67 76,107zm358 78l-47 31c-22,-53 -62,-114 -120,-183l44 -26c43,50 84,109 123,178zm-731 -137c-33,66 -70,120 -112,163l-43 -34c46,-48 83,-99 110,-155l45 26zm526 60c-3,48 -11,81 -24,99 -12,18 -26,29 -41,34 -16,4 -51,6 -105,6 -45,0 -90,-1 -134,-2 -44,-2 -71,-5 -81,-9 -9,-4 -18,-12 -26,-23 -7,-11 -11,-24 -11,-39l0 -149 53 0 0 145c0,11 6,19 18,23 12,4 63,6 153,6 58,0 93,-1 106,-4 13,-2 23,-12 29,-31 6,-19 9,-43 9,-73l54 17zm1235 95l-895 0 0 -53 419 0 0 -697 -376 0 0 -56 805 0 0 56 -374 0 0 697 421 0 0 53zm1018 -657l-324 0 0 179 279 0 0 51 -279 0 0 192 298 0 0 53 -298 0 0 230 -55 0 0 -705 -95 0c-33,77 -82,157 -145,240l-36 -44c84,-104 150,-236 199,-397l48 20c-6,23 -21,66 -43,128l451 0 0 53zm-606 -181c-21,49 -42,94 -61,133l-28 57 0 696 -55 0 0 -598c-58,82 -98,134 -119,156l-30 -51c98,-114 178,-250 242,-410l51 17zm1589 265l-52 0 0 -132 -717 0 0 132 -52 0 0 -182 389 0c-5,-14 -19,-42 -42,-83l53 -17c17,27 34,60 51,100l370 0 0 182zm33 593l-887 0 0 -50 415 0 0 -139 -358 0 0 -51 358 0 0 -117c-128,9 -238,14 -330,16l-12 -48c96,-39 186,-101 270,-188l-213 0 0 -50 627 0 0 50 -344 0c-58,67 -131,128 -221,181 133,-2 294,-15 484,-37 -29,-23 -66,-48 -113,-74l42 -35c102,60 180,121 236,181l-40 36c-19,-22 -41,-42 -65,-62l-266 24 0 123 355 0 0 51 -355 0 0 139 417 0 0 50zm-4658 819c0,-33 9,-57 27,-72 18,-15 39,-22 63,-22 -26,28 -39,60 -39,94 0,29 9,52 28,71 18,19 45,28 80,28 35,0 65,-9 92,-27 26,-19 39,-44 39,-76 0,-22 -7,-42 -22,-59 -15,-18 -33,-33 -54,-46l-63 -37c-21,-13 -39,-28 -53,-47 -15,-18 -22,-38 -22,-61 0,-28 8,-55 24,-84 16,-28 40,-53 71,-74 32,-20 67,-31 106,-31 49,0 74,24 74,71 0,23 -6,50 -17,79 -11,29 -24,55 -37,76 -16,-3 -24,-13 -24,-30 0,-13 7,-38 21,-74 14,-36 21,-61 21,-74 0,-21 -13,-31 -40,-31 -41,0 -77,18 -109,53 -31,35 -46,70 -46,103 0,19 7,36 22,51 14,16 32,29 53,40l61 36c21,12 39,29 53,49 15,21 22,44 22,70 0,46 -19,83 -56,110 -38,27 -81,41 -129,41 -41,0 -75,-11 -104,-33 -28,-22 -42,-53 -42,-94zm379 28c0,-40 14,-97 41,-170 -11,-2 -20,-4 -25,-6l0 -12c17,1 27,2 31,2 20,-53 43,-100 66,-139 24,-39 43,-59 57,-59 3,0 7,2 10,4 3,3 4,7 4,12 0,7 -4,19 -13,36 -10,18 -23,41 -39,70 -17,29 -31,55 -42,79l27 0c39,0 72,-2 100,-5l0 13c-49,6 -90,8 -120,8 -2,0 -3,0 -4,0l-10 0c-26,59 -39,110 -39,154 0,21 3,36 9,44 6,8 16,13 30,13 24,0 48,-11 72,-32 23,-22 44,-51 62,-89l10 7c-18,41 -41,75 -71,101 -30,26 -61,39 -93,39 -42,0 -63,-23 -63,-70zm204 -11c0,-27 8,-61 23,-101 16,-39 29,-59 39,-59 9,0 18,4 26,14 -10,15 -20,37 -31,66 -11,29 -16,54 -16,75 0,32 8,48 25,48 7,0 13,-3 20,-7 7,-5 14,-12 21,-21 7,-9 13,-18 20,-28 6,-9 13,-20 20,-34l18 -34 17 -34c6,-14 10,-23 13,-26 22,4 33,10 33,18 0,1 -4,11 -12,28 -8,18 -15,38 -23,62 -8,23 -12,41 -12,55 0,17 8,26 23,26 16,0 36,-10 59,-31 23,-21 43,-49 59,-83l9 6c-15,38 -36,69 -63,94 -27,24 -53,36 -78,36 -33,0 -50,-17 -50,-52 0,-9 2,-21 5,-35 -32,58 -63,87 -92,87 -16,0 -28,-7 -38,-20 -10,-14 -15,-31 -15,-50zm298 10c0,-26 9,-56 28,-90 19,-34 44,-63 74,-88 31,-26 60,-38 88,-38 20,0 31,7 31,22 0,2 -1,5 -2,10 -5,-7 -14,-10 -27,-10 -23,0 -47,11 -70,35 -23,24 -41,50 -54,79 -13,29 -19,53 -19,72 0,10 2,18 6,24 5,7 11,10 19,10 20,0 46,-19 76,-55 29,-36 55,-83 77,-139l28 -72 26 -66c12,-28 21,-50 29,-65l25 -49c9,-18 18,-30 26,-38 7,-8 14,-12 21,-12 3,0 7,2 9,5 3,3 5,7 5,12 0,9 -9,32 -26,69l-55 115c-21,41 -39,86 -56,136 -17,50 -26,90 -26,122 0,11 1,18 1,23 1,4 2,8 4,12 3,3 6,4 12,4 15,0 34,-9 55,-29 21,-19 39,-44 53,-75l9 6c-14,36 -34,66 -61,90 -26,25 -52,37 -76,37 -16,0 -28,-5 -35,-16 -8,-10 -12,-23 -12,-37 0,-16 5,-41 14,-76 -24,40 -49,72 -75,96 -26,24 -49,36 -70,36 -13,0 -25,-6 -36,-16 -11,-10 -16,-24 -16,-44zm341 -3c0,-18 5,-43 15,-74 10,-31 23,-59 40,-85 16,-26 32,-39 47,-39 10,0 15,5 15,16 0,5 -6,18 -18,39 -12,20 -24,43 -37,69 -12,25 -18,48 -18,67 0,17 3,28 8,34 6,6 14,9 27,9 36,0 73,-36 108,-108l7 7c-14,39 -33,70 -59,92 -25,22 -52,33 -80,33 -18,0 -31,-6 -41,-17 -9,-11 -14,-25 -14,-43zm110 -287c0,-9 6,-18 17,-25 12,-8 23,-11 35,-11 15,0 23,7 23,21 0,9 -5,18 -14,26 -10,8 -20,13 -32,13 -19,0 -29,-8 -29,-24zm57 287c0,-30 8,-60 26,-90 17,-30 35,-45 55,-45 4,0 9,1 15,4 -9,7 -20,26 -32,56 -12,29 -18,53 -18,70 0,28 8,41 25,41 21,0 46,-19 76,-57 -14,-11 -24,-25 -31,-43 -7,-17 -11,-35 -11,-54 0,-25 6,-46 19,-63 12,-18 29,-27 50,-27 33,0 49,19 49,55 0,37 -16,79 -47,126 8,5 17,7 26,7 14,0 28,-4 43,-12 14,-9 25,-21 33,-39l8 7c-9,21 -21,36 -38,46 -16,10 -33,15 -51,15 -12,0 -24,-2 -33,-7 -38,49 -74,74 -108,74 -20,0 -34,-6 -43,-18 -9,-11 -13,-27 -13,-46zm135 -116c0,32 8,57 24,76 28,-40 41,-76 41,-108 0,-27 -7,-40 -21,-40 -10,0 -20,7 -30,22 -9,14 -14,31 -14,50z"/>
  </g>
 </g>
</svg>
