<?xml version="1.0" encoding="UTF-8"?>
<!DOCTYPE svg PUBLIC "-//W3C//DTD SVG 1.1//EN" "http://www.w3.org/Graphics/SVG/1.1/DTD/svg11.dtd">
<!-- Creator: CorelDRAW X8 -->
<svg xmlns="http://www.w3.org/2000/svg" xml:space="preserve" width="44.1854mm" height="16.6686mm" version="1.1" style="shape-rendering:geometricPrecision; text-rendering:geometricPrecision; image-rendering:optimizeQuality; fill-rule:evenodd; clip-rule:evenodd"
viewBox="0 0 4419 1667"
 xmlns:xlink="http://www.w3.org/1999/xlink">
 <defs>
  <style type="text/css">
   <![CDATA[
    .fil1 {fill:#332C2B;fill-rule:nonzero}
    .fil0 {fill:#566892;fill-rule:nonzero}
   ]]>
  </style>
 </defs>
 <g id="圖層_x0020_1">
  <metadata id="CorelCorpID_0Corel-Layer"/>
  <g id="_2220141445168">
   <path class="fil0" d="M697 429l-157 0c-20,27 -37,46 -51,58l-19 -18c36,-32 63,-70 81,-113l24 9c-4,11 -11,25 -19,40l141 0 0 24zm-208 0l-140 0c-22,28 -41,49 -56,62l-20 -17c43,-42 73,-81 90,-117l24 8c-3,7 -10,21 -21,40l123 0 0 24zm146 66l-22 13c-6,-12 -17,-28 -32,-48l22 -12c14,16 24,32 32,47zm-197 -1l-22 13c-6,-13 -16,-29 -29,-47l20 -12c12,12 22,27 31,46zm266 183c0,42 -3,71 -9,86 -6,15 -20,23 -42,23 -29,0 -44,-10 -44,-31l0 -207 -72 0c0,35 -2,66 -3,92 18,16 36,33 56,53l-18 20c-12,-13 -26,-27 -42,-41 -6,52 -36,91 -88,119l-19 -21c25,-11 45,-27 60,-48 16,-21 24,-44 25,-69 -20,-16 -38,-29 -54,-39l15 -19c9,5 23,14 40,27 1,-15 1,-40 1,-74l-42 0 0 -25 167 0 0 226c0,7 5,11 15,11 9,0 15,-1 17,-3 2,-2 4,-4 5,-7 2,-2 3,-11 5,-28 2,-17 3,-35 3,-53l24 8zm-255 32c-65,21 -122,37 -172,47l-7 -25c31,-5 60,-12 86,-19l0 -155 -72 0 0 -24 163 0 0 24 -65 0 0 147c19,-5 41,-11 67,-21l0 26zm748 -297l-152 0 0 27 -24 0 0 -80 24 0 0 29 152 0 0 24zm-251 27l-24 0 0 -27 -154 0 0 -24 154 0 0 -29 24 0 0 80zm207 106l-340 0 0 -90 340 0 0 90zm-26 -24l0 -42 -79 0 0 42 79 0zm-104 0l0 -42 -80 0 0 42 80 0zm-105 0l0 -42 -81 0 0 42 81 0zm263 132l-25 0 0 -50 -189 0c-7,11 -16,23 -25,35l169 0 0 23c-56,65 -151,109 -285,132l-15 -23c51,-8 93,-18 125,-28 -12,-17 -29,-35 -53,-56 -30,17 -54,29 -73,35l-15 -21c67,-25 114,-57 142,-97l-128 0 0 50 -25 0 0 -74 397 0 0 74zm-105 8l-159 0c-7,6 -12,10 -13,11 25,23 44,43 57,59 48,-17 86,-41 115,-70zm590 -206c0,11 -4,19 -11,24 -7,6 -24,8 -50,7l-8 -22c7,1 15,1 23,1 14,0 22,-4 22,-13l0 -60 -160 0 0 -22 184 0 0 85zm-214 2c0,10 -4,18 -11,23 -8,5 -24,7 -49,6l-9 -21c21,1 34,0 38,-2 4,-2 6,-5 6,-11l0 -60 -157 0 0 -22 182 0 0 87zm-85 -37l-13 16c-19,-8 -39,-15 -59,-20l12 -16c20,5 40,12 60,20zm214 -3l-10 18c-24,-8 -46,-14 -67,-17l10 -18c19,3 41,8 67,17zm42 30c-51,17 -97,30 -138,39l-8 -18c36,-8 84,-21 142,-41l4 20zm-214 0c-52,17 -96,30 -131,38l-8 -21c42,-8 87,-20 135,-36l4 19zm282 268l-428 0 0 -21 124 0 0 -30 -105 0 0 -22 105 0 0 -30 -75 0 0 -110 330 0 0 110 -75 0 0 30 102 0 0 22 -102 0 0 30 124 0 0 21zm-74 -169l0 -23 -128 0 0 23 128 0zm-153 0l0 -23 -127 0 0 23 127 0zm153 43l0 -22 -128 0 0 22 128 0zm-153 0l0 -22 -127 0 0 22 127 0zm79 53l0 -30 -132 0 0 30 132 0zm0 52l0 -30 -132 0 0 30 132 0zm142 75l-12 21c-35,-15 -81,-29 -138,-41l12 -20c43,9 89,22 138,40zm-261 -22c-35,15 -82,29 -142,42l-13 -22c55,-10 100,-22 136,-37l19 17zm-1163 483c6,-29 16,-66 29,-109 14,-44 24,-76 32,-95 8,-23 17,-34 27,-34 3,0 7,2 10,4 -14,33 -28,72 -43,118 -14,45 -25,86 -33,121 5,1 11,2 15,2 24,0 47,-10 70,-28 22,-18 40,-41 53,-69 14,-28 21,-57 21,-86 0,-27 -7,-48 -20,-62 -13,-14 -30,-21 -53,-21 -23,0 -42,7 -57,20 -16,13 -24,29 -24,49 0,5 1,9 2,13 -14,0 -21,-7 -21,-20 0,-17 11,-34 34,-49 22,-15 48,-23 77,-23 30,0 52,9 66,27 14,17 21,41 21,70 0,25 -5,49 -15,72 -10,23 -23,44 -38,60 -16,17 -34,31 -55,41 -20,10 -40,15 -61,15 -17,0 -30,-6 -37,-16zm208 -60c12,-22 21,-44 29,-67 -3,-2 -4,-5 -4,-9 0,-6 2,-12 6,-16 3,-5 6,-8 9,-8 3,0 5,3 5,9 0,1 -1,3 -1,7 -1,3 -2,5 -2,6 0,3 2,6 6,9 4,3 8,6 12,9 5,3 9,7 13,12 3,6 5,12 5,19 0,8 -3,19 -9,32 -6,14 -9,23 -9,28 0,7 4,10 11,10 11,0 22,-6 34,-17 13,-12 21,-24 26,-35l5 3c-8,16 -18,31 -32,43 -14,13 -28,19 -42,19 -8,0 -14,-2 -19,-6 -5,-5 -7,-10 -7,-17 0,-7 3,-18 10,-34 6,-15 9,-26 9,-32 0,-2 0,-5 -1,-7 0,-2 -1,-4 -2,-5 0,-1 -1,-3 -3,-5l-4 -3c-1,-1 -2,-2 -5,-4 -2,-1 -4,-2 -4,-3 -12,28 -23,51 -32,68l-4 -6zm118 20c0,-22 9,-44 29,-67 20,-23 40,-35 60,-35 15,0 22,7 22,22 0,17 -9,32 -27,45 -19,13 -39,21 -60,23 -1,4 -2,8 -2,13 0,19 10,29 28,29 15,0 29,-6 44,-18 14,-12 26,-26 35,-44l5 3c-10,21 -23,38 -40,50 -16,13 -34,19 -51,19 -14,0 -25,-4 -32,-11 -8,-8 -11,-17 -11,-29zm26 -19c16,-6 32,-14 47,-26 15,-12 23,-24 23,-38 0,-5 -3,-8 -8,-8 -11,0 -23,8 -36,23 -13,16 -21,32 -26,49zm87 31c0,-14 5,-29 14,-46 10,-17 23,-32 38,-44 16,-12 31,-18 45,-18 9,0 17,2 23,7 7,5 10,12 10,20 0,10 -6,15 -18,15 2,-5 2,-9 2,-13 0,-13 -6,-19 -17,-19 -11,0 -22,6 -33,17 -12,12 -21,26 -29,42 -7,15 -11,29 -11,40 0,10 3,14 10,14 4,0 9,-2 14,-6 6,-4 11,-8 16,-13 5,-5 10,-12 17,-20 6,-8 11,-15 14,-19l13 -19c9,2 14,5 14,9 0,2 -4,9 -11,21 -6,13 -10,22 -10,28 0,4 1,8 3,11 2,3 5,5 9,5 7,0 16,-5 26,-15 11,-10 21,-23 31,-41l3 3c-7,19 -17,34 -30,46 -14,12 -27,18 -40,18 -8,0 -14,-2 -18,-7 -5,-5 -7,-10 -7,-17 0,-3 0,-6 1,-10 -10,14 -20,24 -28,30 -9,7 -17,10 -25,10 -8,0 -14,-2 -19,-7 -5,-5 -7,-12 -7,-22zm150 15c0,-1 3,-7 7,-18 4,-12 8,-25 12,-40 4,-15 6,-27 6,-36 4,-5 10,-8 16,-8 6,0 10,4 10,10 0,6 -4,19 -10,40 12,-19 24,-35 37,-48 14,-13 26,-20 38,-20 12,0 18,9 18,28 0,15 -3,32 -10,50 20,-37 39,-55 58,-55 14,0 20,8 20,22 0,7 -2,18 -6,32 -4,14 -6,23 -6,28 0,8 3,12 10,12 14,0 30,-19 47,-56l4 5c-6,17 -15,32 -25,44 -11,13 -23,19 -35,19 -8,0 -14,-2 -18,-7 -4,-5 -6,-11 -6,-19 0,-6 1,-15 5,-26 3,-12 5,-20 5,-24 0,-9 -3,-13 -10,-13 -5,0 -11,4 -17,12 -7,7 -16,21 -29,41 -3,4 -8,15 -17,33 -4,0 -8,-1 -12,-2 -4,-1 -6,-3 -6,-5 0,0 4,-12 11,-34 8,-22 11,-38 11,-48 0,-8 -3,-13 -8,-13 -10,0 -24,11 -41,34 -18,22 -31,46 -39,70 -4,0 -8,-1 -13,-3 -4,-1 -7,-3 -7,-5zm341 -193c0,-15 6,-29 20,-43 13,-13 28,-20 44,-20 15,0 26,6 33,17 7,11 11,26 11,46 0,19 -4,43 -12,70 -7,27 -15,52 -22,76 -8,23 -12,40 -12,51 0,9 4,14 11,14 11,0 25,-10 41,-30 16,-20 30,-43 42,-68 12,-25 19,-46 21,-61 7,0 12,2 16,5 3,4 5,8 5,12 0,4 -2,11 -7,21l-13 32c-5,11 -9,24 -13,38 -4,13 -6,26 -6,36 0,5 0,9 2,11 1,3 4,4 8,4 12,0 29,-12 49,-37 20,-24 37,-53 52,-87 15,-34 23,-63 23,-88 0,-20 -7,-33 -20,-37 7,-10 13,-16 21,-16 6,0 11,4 15,10 4,7 7,17 7,29 0,26 -9,57 -26,95 -18,37 -39,70 -63,99 -25,28 -47,43 -66,43 -7,0 -14,-3 -21,-7 -6,-5 -9,-11 -9,-20 0,-6 2,-17 7,-31 -27,38 -52,58 -73,58 -7,0 -14,-2 -20,-7 -7,-4 -10,-11 -10,-21 0,-9 4,-26 11,-49 7,-23 15,-49 22,-77 8,-27 11,-51 11,-72 0,-6 0,-11 0,-15 0,-4 0,-8 -1,-13 -1,-5 -2,-9 -3,-12 -2,-2 -4,-4 -7,-6 -2,-2 -6,-3 -10,-3 -12,0 -21,6 -27,19 -6,13 -9,26 -9,40 0,8 1,14 3,19 -9,0 -15,-2 -19,-7 -4,-4 -6,-11 -6,-18zm300 171c0,-10 3,-22 8,-37 4,-16 11,-30 19,-43 8,-13 16,-20 24,-20 5,0 8,3 8,8 0,3 -3,10 -10,20 -6,10 -12,21 -18,34 -6,13 -9,24 -9,34 0,8 1,14 4,17 3,3 7,4 13,4 19,0 37,-18 55,-54l3 4c-7,19 -17,35 -29,46 -13,11 -27,16 -41,16 -8,0 -15,-3 -20,-8 -5,-6 -7,-13 -7,-21zm55 -144c0,-5 3,-9 9,-13 5,-3 11,-5 17,-5 8,0 12,3 12,10 0,5 -3,9 -8,14 -5,4 -10,6 -15,6 -10,0 -15,-4 -15,-12zm18 162c0,-1 3,-7 7,-17 4,-10 8,-22 12,-36 4,-14 7,-25 7,-34 4,-5 9,-8 16,-8 6,0 9,3 9,10 0,8 -3,23 -11,46 27,-41 51,-62 73,-62 9,0 15,3 20,9 4,7 6,14 6,23 0,8 -2,17 -7,29 -5,12 -7,21 -7,27 0,8 3,13 10,13 15,0 31,-18 50,-55l4 5c-17,39 -38,59 -61,59 -8,0 -14,-2 -19,-6 -4,-4 -6,-10 -6,-16 0,-5 2,-13 5,-24 4,-11 5,-20 5,-25 0,-12 -4,-18 -14,-18 -5,0 -11,2 -18,7 -6,4 -12,9 -17,14 -5,6 -11,13 -17,23 -7,10 -12,17 -15,22l-13 21c-9,0 -15,-2 -19,-7zm171 81c0,-5 1,-9 3,-14 2,-4 5,-8 9,-12 4,-4 8,-8 11,-10 3,-3 8,-7 15,-10l15 -8c3,-2 8,-5 16,-9 7,-16 13,-35 18,-57 -21,30 -40,44 -57,44 -9,0 -15,-3 -20,-9 -5,-6 -7,-14 -7,-24 0,-16 5,-31 15,-45 11,-15 23,-27 37,-35 15,-8 28,-12 41,-12 13,0 19,3 19,11 0,4 -1,6 -4,7 -3,-4 -7,-5 -14,-5 -18,0 -34,9 -49,28 -15,19 -22,37 -22,53 0,12 4,17 12,17 7,0 15,-4 24,-13 10,-9 19,-20 29,-34l4 -19c2,-12 8,-18 18,-18 2,0 4,0 7,1 0,6 -2,19 -8,38 -5,19 -11,39 -19,59 12,-6 24,-14 34,-25 11,-10 18,-22 24,-34l4 3c-5,14 -14,27 -27,39 -12,12 -25,21 -39,27 -24,57 -46,86 -69,86 -5,0 -10,-2 -14,-5 -4,-4 -6,-9 -6,-15zm11 -3c0,3 1,6 2,9 2,2 4,3 6,3 6,0 13,-5 21,-15 8,-11 16,-26 25,-47 -17,9 -30,17 -40,24 -9,8 -14,16 -14,26z"/>
   <path class="fil1" d="M2175 747c0,12 -3,21 -9,28 -7,8 -16,12 -28,14 -14,0 -29,1 -43,1l-20 0 -9 -27c21,1 44,0 68,0 5,-1 8,-3 11,-7 3,-4 5,-8 5,-12l0 -386 25 0 0 389zm-83 -48l-25 0 0 -318 25 0 0 318zm-48 -240l-14 22c-36,-35 -77,-66 -123,-94 -11,12 -29,29 -54,50l111 0 0 22 -113 0 0 -21c-30,22 -58,40 -82,54l-14 -22c64,-35 113,-73 146,-116l28 7c-1,2 -3,4 -4,6 48,32 88,63 119,92zm-32 331l-24 0 0 -25 -143 0 0 25 -25 0 0 -109c-7,46 -23,82 -45,108l-18 -16c31,-47 46,-104 46,-172l0 -113 209 0 0 137 -184 0c-1,8 -2,21 -4,37l188 0 0 128zm-25 -246l0 -32 -158 0 0 32 158 0zm0 57l0 -33 -158 0 0 33 158 0zm1 141l0 -56 -143 0 0 56 143 0zm684 -258l-415 0 0 -24 126 0c-3,-9 -10,-24 -20,-43l-82 0 0 -24 169 0c-5,-9 -12,-18 -23,-29l25 -11c11,14 21,27 30,40l168 0 0 24 -81 0c-7,17 -15,31 -22,43l125 0 0 24zm-130 -67l-151 0c6,11 12,25 19,43l108 0c7,-11 15,-26 24,-43zm75 242l-307 0 0 -142 307 0 0 142zm-25 -84l0 -34 -256 0 0 34 256 0zm0 59l0 -35 -256 0 0 35 256 0zm-86 87l-21 13c-8,-16 -20,-34 -36,-54l20 -11c15,15 28,33 37,52zm173 37l-23 15c-11,-25 -30,-55 -58,-88l21 -12c21,24 41,52 60,85zm-353 -66c-16,32 -34,58 -54,79l-21 -16c23,-23 40,-48 53,-75l22 12zm254 30c-2,22 -6,38 -12,47 -5,9 -12,14 -20,16 -7,2 -24,4 -50,4 -22,0 -43,-1 -65,-2 -21,0 -34,-2 -39,-4 -4,-2 -9,-6 -12,-11 -4,-5 -6,-11 -6,-19l0 -72 26 0 0 70c0,6 3,9 8,11 6,2 31,3 74,3 28,0 45,0 52,-1 6,-1 11,-7 13,-15 3,-10 5,-21 5,-36l26 9zm596 45l-432 0 0 -25 202 0 0 -337 -181 0 0 -27 388 0 0 27 -180 0 0 337 203 0 0 25zm491 -317l-156 0 0 86 135 0 0 25 -135 0 0 93 144 0 0 26 -144 0 0 111 -26 0 0 -341 -46 0c-16,38 -40,76 -70,116l-18 -21c41,-50 73,-114 96,-192l23 10c-2,11 -9,31 -20,62l217 0 0 25zm-292 -87c-10,24 -20,45 -29,64l-14 27 0 337 -27 0 0 -289c-28,39 -47,65 -57,75l-14 -25c47,-54 86,-120 116,-198l25 9zm767 128l-25 0 0 -64 -346 0 0 64 -25 0 0 -88 188 0c-3,-7 -9,-20 -21,-40l26 -9c8,13 16,30 24,49l179 0 0 88zm16 286l-428 0 0 -24 200 0 0 -67 -173 0 0 -25 173 0 0 -56c-61,4 -115,6 -159,7l-6 -23c47,-19 90,-49 131,-91l-103 0 0 -24 302 0 0 24 -166 0c-28,33 -63,62 -106,88 64,-1 142,-7 233,-18 -14,-11 -32,-23 -54,-36l20 -17c49,29 87,59 114,88l-20 17c-9,-10 -19,-20 -31,-30l-128 12 0 59 171 0 0 25 -171 0 0 67 201 0 0 24zm-2189 406c0,-17 4,-29 13,-37 10,-7 20,-11 32,-11 -13,14 -19,30 -19,48 0,14 4,25 13,35 10,9 23,14 40,14 18,0 33,-5 46,-14 14,-9 20,-22 20,-37 0,-12 -4,-21 -11,-30 -7,-9 -17,-17 -27,-23l-32 -19c-10,-6 -19,-14 -26,-23 -7,-9 -11,-19 -11,-31 0,-13 4,-27 12,-42 8,-14 20,-26 36,-36 16,-11 33,-16 52,-16 25,0 37,12 37,35 0,12 -2,25 -8,40 -6,14 -12,27 -19,38 -7,-2 -11,-7 -11,-15 0,-7 3,-19 10,-37 7,-18 10,-30 10,-37 0,-10 -6,-15 -19,-15 -21,0 -39,8 -55,26 -15,18 -23,35 -23,51 0,10 3,18 11,26 7,8 16,14 26,20l31 18c11,6 19,14 27,25 7,10 11,21 11,35 0,22 -10,41 -29,54 -19,14 -40,21 -64,21 -20,0 -38,-6 -52,-17 -14,-11 -21,-26 -21,-46zm190 13c0,-20 6,-48 20,-85 -6,-1 -10,-2 -13,-2l0 -7c9,1 14,2 16,2 10,-27 21,-50 33,-70 12,-20 21,-30 28,-30 2,0 4,1 5,3 2,1 3,3 3,5 0,4 -3,10 -7,19 -5,8 -11,20 -20,34 -8,15 -15,28 -20,40l13 0c19,0 36,-1 50,-2l0 6c-25,3 -45,4 -60,4 -1,0 -1,0 -2,0l-5 0c-13,30 -20,55 -20,77 0,10 2,18 5,22 3,4 8,6 15,6 12,0 24,-5 36,-16 12,-11 22,-25 31,-44l5 3c-9,21 -21,38 -35,51 -15,13 -31,19 -47,19 -21,0 -31,-11 -31,-35zm102 -5c0,-14 3,-30 11,-50 8,-20 14,-30 20,-30 4,0 8,2 13,7 -5,7 -11,19 -16,33 -5,15 -8,27 -8,38 0,15 4,23 13,23 3,0 6,-1 9,-3 4,-3 7,-6 11,-11 3,-4 7,-9 10,-13 3,-5 6,-11 10,-18l9 -17 9 -17c3,-7 5,-11 6,-13 11,2 16,5 16,9 0,1 -1,6 -5,15 -4,8 -8,19 -12,30 -4,12 -6,21 -6,28 0,9 4,13 12,13 8,0 17,-5 29,-16 11,-10 21,-24 30,-41l4 3c-7,19 -18,34 -31,47 -14,12 -27,18 -40,18 -16,0 -24,-9 -24,-26 0,-5 1,-11 2,-18 -16,29 -32,44 -46,44 -8,0 -14,-3 -19,-10 -5,-7 -7,-15 -7,-25zm148 5c0,-13 5,-28 15,-45 9,-17 22,-32 37,-44 15,-13 29,-19 43,-19 11,0 16,3 16,11 0,1 0,3 -1,5 -2,-4 -7,-5 -13,-5 -12,0 -24,6 -35,17 -12,12 -21,25 -28,40 -6,14 -9,26 -9,36 0,5 1,9 3,12 2,3 5,5 9,5 11,0 23,-9 38,-28 15,-18 28,-41 39,-69l14 -36 13 -33c6,-14 11,-25 15,-33l12 -24c5,-9 9,-15 13,-19 4,-4 7,-6 10,-6 2,0 4,1 5,2 2,2 2,4 2,6 0,5 -4,16 -12,35l-28 57c-10,21 -20,44 -28,68 -9,25 -13,46 -13,61 0,6 0,10 1,12 0,2 0,4 2,6 1,1 3,2 5,2 8,0 17,-5 28,-15 11,-9 20,-22 27,-37l4 3c-7,18 -17,33 -30,45 -14,12 -26,18 -39,18 -8,0 -13,-2 -17,-8 -4,-5 -6,-11 -6,-18 0,-8 2,-21 7,-38 -12,20 -25,36 -38,48 -12,12 -24,18 -35,18 -6,0 -12,-3 -18,-8 -5,-5 -8,-12 -8,-22zm171 -1c0,-10 3,-22 8,-37 4,-16 11,-30 19,-43 9,-13 16,-20 24,-20 5,0 8,3 8,8 0,3 -3,10 -9,20 -7,10 -13,21 -19,34 -6,13 -9,24 -9,34 0,8 1,14 4,17 3,3 7,4 13,4 19,0 37,-18 55,-54l3 4c-7,19 -16,35 -29,46 -13,11 -27,16 -41,16 -8,0 -15,-3 -20,-8 -5,-6 -7,-13 -7,-21zm55 -144c0,-5 3,-9 9,-13 5,-3 11,-5 17,-5 8,0 12,3 12,10 0,5 -3,9 -8,14 -4,4 -10,6 -15,6 -10,0 -15,-4 -15,-12zm28 143c0,-15 5,-30 13,-45 9,-15 18,-22 28,-22 2,0 5,0 7,2 -4,3 -9,13 -16,28 -6,15 -9,26 -9,35 0,14 5,21 13,21 10,0 23,-10 38,-29 -7,-6 -12,-13 -16,-21 -3,-9 -5,-18 -5,-28 0,-12 3,-23 9,-31 7,-9 15,-13 26,-13 16,0 24,9 24,27 0,18 -8,39 -24,63 4,2 9,3 14,3 6,0 14,-2 21,-6 7,-4 13,-10 16,-19l5 4c-5,10 -11,18 -19,22 -9,5 -17,8 -26,8 -6,0 -12,-1 -17,-4 -19,25 -37,37 -54,37 -9,0 -16,-3 -21,-8 -4,-6 -7,-14 -7,-24zm68 -58c0,16 4,29 12,39 14,-21 21,-39 21,-55 0,-13 -4,-20 -11,-20 -5,0 -10,4 -15,11 -5,7 -7,16 -7,25z"/>
  </g>
 </g>
</svg>
